{"accessors":[{"bufferView":0,"byteOffset":0,"componentType":5126,"count":3001,"max":[0.8712112426757813,1.8086214599609377,0.1647596893310547],"min":[-0.8712112426757813,0.00028178372979164126,-0.12702579498291018],"type":"VEC3"},{"bufferView":1,"byteOffset":0,"componentType":5126,"count":3001,"type":"VEC3"},{"bufferView":2,"byteOffset":0,"componentType":5123,"count":14478,"type":"SCALAR"}],"asset":{"generator":"Open CASCADE Technology 7.6 [dev.opencascade.org]","version":"2.0","extras":{"Originating system":"Khronos glTF Blender I/O v0.9.36"}},"bufferViews":[{"buffer":0,"byteLength":36012,"byteOffset":0,"byteStride":12,"target":34962},{"buffer":0,"byteLength":36012,"byteOffset":36012,"byteStride":12,"target":34962},{"buffer":0,"byteLength":28956,"byteOffset":72024,"target":34963}],"buffers":[{"byteLength":100980,"uri":"stacy.bin"}],"meshes":[{"name":"stacy","primitives":[{"attributes":{"NORMAL":1,"POSITION":0},"indices":2,"mode":4}]}],"nodes":[{"mesh":0,"name":"Stacy"}],"scene":0,"scenes":[{"nodes":[0]}]}